<svg xmlns="http://www.w3.org/2000/svg" viewBox="0 0 120 150"><title>Andorinha MyDose Scale</title><defs><linearGradient id="adorso" x1="0" y1="0" x2="1" y2="1"><stop offset="0" stop-color="#415FF5"/><stop offset=".55" stop-color="#2A3A9E"/><stop offset="1" stop-color="#191E47"/></linearGradient>
<linearGradient id="aasaP" x1="1" y1="0" x2="0" y2="1"><stop offset="0" stop-color="#3D55E0"/><stop offset=".6" stop-color="#22307E"/><stop offset="1" stop-color="#191E47"/></linearGradient>
<linearGradient id="aasaL" x1="0" y1="1" x2="1" y2="0"><stop offset="0" stop-color="#191E47"/><stop offset="1" stop-color="#2E3F9F"/></linearGradient>
<linearGradient id="agarg" x1="0" y1="0" x2="0" y2="1"><stop offset="0" stop-color="#FF9F88"/><stop offset="1" stop-color="#F56442"/></linearGradient>
<linearGradient id="abarr" x1="0" y1="0" x2="0" y2="1"><stop offset="0" stop-color="#FFFFFF"/><stop offset="1" stop-color="#E9E3F0"/></linearGradient></defs><g id="andorinha"><path fill="#191E47" d="M50 114 L16 148 L44 122 Z"/>
<path fill="#22307E" d="M52 116 L34 152 L56 124 Z"/>
<path fill="url(#adorso)" d="M84 28 C100 26 110 40 106 58 C102 76 84 100 62 116 C54 122 46 120 44 110 C42 92 50 66 60 46 C66 36 74 30 84 28 Z"/>
<path fill="url(#abarr)" d="M100 46 C108 52 108 62 104 72 C98 88 82 104 62 116 C58 110 60 100 68 90 C80 76 92 60 100 46 Z"/>
<path fill="url(#aasaP)" d="M70 52 C78 46 88 48 92 56 C86 72 74 92 56 110 C50 104 48 92 52 80 C56 68 62 58 70 52 Z"/>
<path fill="none" stroke="#8699FD" stroke-width="1.3" stroke-linecap="round" opacity=".5" d="M58 92 C62 78 70 66 82 58"/>
<path fill="url(#agarg)" d="M88 44 C96 42 104 46 104 54 C100 60 92 60 86 56 Z"/>
<path fill="#D14D30" d="M106 42 L118 46 L106 48 Z"/>
<circle cx="95" cy="40" r="2.4" fill="#FFFFFF"/><circle cx="95.6" cy="40.2" r="1.3" fill="#191E47"/><circle cx="96" cy="39.7" r=".5" fill="#FFFFFF"/>
<path stroke="#D14D30" stroke-width="1.6" stroke-linecap="round" fill="none" d="M60 114 L62 122 M66 112 L70 120"/></g></svg>