<svg xmlns="http://www.w3.org/2000/svg" viewBox="0 0 240 200"><title>Beija-flor MyDose Scale</title><defs><linearGradient id="adorso" x1="0" y1="0" x2="1" y2="1"><stop offset="0" stop-color="#415FF5"/><stop offset=".55" stop-color="#2A3A9E"/><stop offset="1" stop-color="#191E47"/></linearGradient>
<linearGradient id="aasa" x1="1" y1="1" x2="0" y2="0"><stop offset="0" stop-color="#415FF5"/><stop offset=".55" stop-color="#22307E"/><stop offset="1" stop-color="#191E47"/></linearGradient>
<linearGradient id="agorget" x1="0" y1="0" x2="1" y2="1"><stop offset="0" stop-color="#415FF5"/><stop offset=".5" stop-color="#C64FCA"/><stop offset="1" stop-color="#F56442"/></linearGradient>
<linearGradient id="acreme" x1="0" y1="0" x2="0" y2="1"><stop offset="0" stop-color="#FFFFFF"/><stop offset="1" stop-color="#E9E3F0"/></linearGradient></defs><g id="beija-flor"><path fill="#191E47" d="M104 134 C96 150 90 164 86 180 C96 166 104 152 112 140 Z"/>
<path fill="url(#adorso)" d="M98 136 C88 116 98 96 118 86 C128 80 138 78 148 80 C142 70 148 60 160 60 C172 60 180 70 178 82 C176 92 168 98 160 98 C166 108 162 122 150 130 C134 140 112 144 98 136 Z"/>
<path fill="url(#acreme)" d="M102 138 C114 128 132 120 150 118 C158 118 162 122 160 128 C150 136 132 142 116 142 C110 142 104 140 102 138 Z"/>
<path fill="url(#aasa)" d="M0 0 C26 -30 62 -40 100 -32 C112 -30 116 -18 108 -8 C84 16 44 26 8 14 C-2 10 -6 4 0 0 Z" transform="translate(130 92) rotate(152) scale(.62)"/>
<path fill="url(#agorget)" d="M150 98 C158 96 170 98 176 106 C170 116 158 120 146 114 C144 108 146 102 150 98 Z"/>
<path fill="#191E47" d="M176 80 L234 66 L178 88 Z"/>
<circle cx="165" cy="76" r="3" fill="#FFFFFF"/><circle cx="165.7" cy="76.2" r="1.7" fill="#191E47"/><circle cx="166.2" cy="75.6" r=".6" fill="#FFFFFF"/>
<path stroke="#D14D30" stroke-width="2" stroke-linecap="round" fill="none" d="M118 142 L116 154 M128 140 L130 152"/></g></svg>