<svg xmlns="http://www.w3.org/2000/svg" viewBox="0 0 240 200" role="img" aria-label="martim"><defs><linearGradient id="madorso" x1="0" y1="0" x2="1" y2="1"><stop offset="0" stop-color="#415FF5"/><stop offset=".55" stop-color="#2A3A9E"/><stop offset="1" stop-color="#191E47"/></linearGradient>
<linearGradient id="maasaP" x1="1" y1="0" x2="0" y2="1"><stop offset="0" stop-color="#3D55E0"/><stop offset=".6" stop-color="#22307E"/><stop offset="1" stop-color="#191E47"/></linearGradient>
<linearGradient id="maasaL" x1="0" y1="1" x2="1" y2="0"><stop offset="0" stop-color="#191E47"/><stop offset="1" stop-color="#2E3F9F"/></linearGradient>
<linearGradient id="macoral" x1="0" y1="0" x2="0" y2="1"><stop offset="0" stop-color="#FF9F88"/><stop offset="1" stop-color="#F56442"/></linearGradient>
<linearGradient id="macreme" x1="0" y1="0" x2="0" y2="1"><stop offset="0" stop-color="#FFFFFF"/><stop offset="1" stop-color="#E9E3F0"/></linearGradient>
<linearGradient id="magorget" x1="0" y1="0" x2="1" y2="1"><stop offset="0" stop-color="#415FF5"/><stop offset=".5" stop-color="#C64FCA"/><stop offset="1" stop-color="#F56442"/></linearGradient>
<linearGradient id="mamarca" x1="0" y1="0" x2="1" y2="1"><stop offset="0" stop-color="#415FF5"/><stop offset=".52" stop-color="#C64FCA"/><stop offset="1" stop-color="#F56442"/></linearGradient></defs><path stroke="#6B3A1E" stroke-width="7" stroke-linecap="round" fill="none" d="M28 172 C70 160 120 166 190 154"/>
<path fill="#191E47" d="M70 148 L44 178 L64 156 Z"/><path fill="#22307E" d="M76 152 L60 184 L80 158 Z"/>
<path fill="url(#madorso)" d="M70 150 C58 118 68 84 96 64 C112 52 134 48 148 56 C160 62 164 74 160 88 C158 96 152 102 144 104 C138 122 118 146 92 160 C82 164 74 160 70 150 Z"/>
<path fill="url(#macoral)" d="M94 160 C112 146 128 126 138 108 C144 100 152 96 158 92 C160 112 152 134 138 150 C126 160 108 166 94 160 Z"/>
<path fill="#FFFFFF" d="M128 104 C136 98 148 98 156 102 C152 110 142 112 132 110 Z"/>
<path fill="#FFEAE5" opacity=".85" d="M124 74 C130 70 140 72 144 80 C138 84 130 84 124 80 Z"/>
<path fill="url(#maasaP)" d="M78 116 C84 94 100 80 122 82 C118 102 104 124 86 140 C80 136 76 126 78 116 Z"/>
<g fill="#8699FD" opacity=".7"><circle cx="92" cy="104" r="1.8"/><circle cx="102" cy="96" r="1.8"/><circle cx="98" cy="116" r="1.8"/><circle cx="110" cy="106" r="1.8"/><circle cx="88" cy="126" r="1.8"/><circle cx="106" cy="88" r="1.6"/></g>
<path fill="#191E47" d="M158 76 L216 70 L160 82 Z"/><path fill="#D14D30" d="M160 82 L214 72 L162 88 Z" opacity=".9"/>
<circle cx="142" cy="70" r="3.2" fill="#FFFFFF"/><circle cx="142.8" cy="70.2" r="1.9" fill="#191E47"/><circle cx="143.4" cy="69.6" r=".7" fill="#FFFFFF"/>
<path stroke="#D14D30" stroke-width="2" stroke-linecap="round" fill="none" d="M92 160 L96 170 M100 158 L106 168"/></svg>